<?xml version="1.0" standalone="no"?>
<!DOCTYPE svg PUBLIC "-//W3C//DTD SVG 20010904//EN"
 "http://www.w3.org/TR/2001/REC-SVG-20010904/DTD/svg10.dtd">
<svg version="1.0" xmlns="http://www.w3.org/2000/svg"
 width="512.000000pt" height="512.000000pt" viewBox="0 0 512.000000 512.000000"
 preserveAspectRatio="xMidYMid meet">

<g transform="translate(0.000000,512.000000) scale(0.100000,-0.100000)"
fill="#000000" stroke="none">
<path d="M2697 4521 l-34 -30 -11 24 c-15 33 -31 31 -92 -6 -42 -25 -58 -30
-87 -26 -27 5 -46 1 -71 -15 l-35 -21 -47 26 c-31 18 -63 27 -90 27 -37 0 -48
-6 -84 -42 -22 -24 -46 -52 -51 -63 -7 -14 -23 -21 -49 -23 -27 -2 -53 -14
-81 -38 -23 -19 -51 -34 -61 -34 -10 0 -36 -5 -56 -11 -40 -11 -60 -47 -40
-72 6 -7 14 -31 17 -53 6 -33 3 -43 -15 -59 -19 -17 -34 -20 -104 -17 -58 2
-87 -2 -101 -12 -19 -13 -19 -14 1 -41 38 -55 52 -89 43 -107 -5 -9 -9 -25 -9
-35 0 -10 -9 -29 -20 -43 -29 -37 -24 -51 31 -94 42 -32 49 -43 45 -62 -3 -12
-2 -26 4 -29 20 -12 9 -42 -25 -74 -34 -31 -35 -34 -35 -106 0 -56 5 -85 20
-112 11 -21 18 -45 15 -54 -3 -9 2 -38 10 -64 10 -27 14 -59 10 -75 -4 -19 -1
-37 11 -55 16 -25 16 -29 0 -81 -17 -53 -17 -56 1 -81 31 -44 32 -47 38 -95 4
-34 14 -55 38 -77 25 -25 31 -38 29 -67 -2 -28 3 -41 29 -65 17 -16 39 -29 49
-29 10 0 20 -9 23 -21 4 -15 11 -19 25 -15 31 10 50 -3 63 -42 6 -21 21 -48
33 -60 28 -31 85 -54 115 -47 14 4 30 0 40 -9 17 -15 124 -39 176 -39 17 1 58
2 92 5 53 3 71 -1 120 -24 45 -21 73 -28 122 -28 47 0 74 -6 103 -22 l40 -23
40 45 c22 25 59 54 81 66 36 18 43 26 47 60 4 32 11 42 35 52 17 8 40 29 52
47 15 22 33 36 55 40 46 10 68 33 68 70 0 42 13 53 82 66 64 13 101 45 96 83
-2 16 -11 22 -38 24 -56 4 -62 9 -50 32 17 32 53 35 99 8 47 -27 74 -18 79 25
2 19 -5 31 -27 48 -39 29 -39 39 -1 39 17 0 30 4 30 8 0 5 6 16 13 26 13 17
15 18 39 2 23 -15 26 -15 48 9 19 21 22 31 16 70 -5 40 -2 51 19 79 28 36 25
66 -6 66 -29 0 -24 11 32 69 l50 53 -26 44 c-21 36 -24 48 -14 65 9 18 6 26
-20 53 -17 18 -31 37 -31 43 0 6 -12 26 -27 44 l-27 32 28 21 c78 56 81 61 79
118 -1 35 5 67 18 95 31 68 25 101 -30 180 -55 78 -90 106 -129 101 -38 -4
-42 -45 -8 -86 31 -36 31 -38 6 -52 -28 -15 -55 2 -80 50 -11 22 -28 44 -38
49 -21 11 -52 -3 -52 -25 0 -9 -6 -14 -12 -11 -7 2 -12 15 -10 27 1 13 -6 31
-18 42 -11 10 -20 28 -20 38 0 11 -9 28 -20 37 -24 21 -25 36 -4 53 8 8 14 25
12 39 -2 22 -18 33 -87 69 -89 44 -147 54 -158 27 -7 -21 24 -54 61 -63 16 -4
31 -13 34 -20 7 -23 -30 -25 -74 -4 -39 19 -44 25 -44 56 0 35 -21 66 -44 66
-7 0 -25 -10 -40 -21 l-27 -21 -23 21 c-23 22 -56 28 -56 11 0 -5 -7 -10 -16
-10 -9 0 -22 -7 -29 -17 -7 -10 -17 -13 -25 -8 -10 6 -10 10 3 20 25 18 26 65
0 82 -19 13 -24 12 -56 -16z m-57 -32 c0 -10 -40 -73 -90 -139 -49 -66 -94
-137 -101 -158 -10 -36 -8 -104 6 -197 4 -22 2 -53 -5 -69 l-11 -29 -29 34
-30 34 12 -30 c6 -16 15 -34 20 -39 11 -14 10 -54 -2 -61 -5 -3 -10 -23 -10
-43 0 -25 -8 -44 -25 -62 -22 -23 -24 -29 -13 -57 10 -26 8 -36 -10 -67 -23
-38 -31 -126 -12 -126 6 0 10 7 10 15 0 8 25 39 56 68 56 53 57 54 38 75 -22
26 -20 78 4 105 15 17 15 19 -1 28 -27 15 -21 61 11 90 60 55 102 80 123 74
32 -11 89 57 118 140 23 65 33 79 135 179 66 65 106 110 98 113 -16 6 -206
-189 -231 -237 -10 -19 -22 -49 -25 -66 -8 -34 -70 -113 -80 -103 -4 4 0 19 9
35 8 16 25 56 36 89 18 50 36 74 108 145 47 47 115 118 150 158 65 74 78 83
87 57 13 -33 -11 -71 -109 -173 -83 -87 -111 -123 -145 -193 -46 -94 -107
-164 -153 -173 -33 -6 -39 -26 -9 -26 62 0 136 81 202 219 34 71 55 101 129
174 48 48 96 87 106 87 18 -1 53 -22 53 -33 0 -3 -38 -35 -83 -72 -92 -73
-160 -149 -249 -281 -63 -95 -73 -135 -37 -154 28 -15 35 -6 16 21 -11 15 -13
28 -7 45 9 22 99 157 146 219 40 51 177 165 239 198 49 26 60 37 60 57 0 20
-10 30 -48 48 -27 13 -45 27 -41 33 9 16 50 2 132 -42 90 -50 92 -66 19 -113
-49 -31 -77 -68 -77 -100 0 -17 -35 -47 -91 -79 -25 -14 -58 -42 -73 -61 -14
-19 -41 -42 -59 -51 -17 -8 -45 -26 -62 -39 l-30 -25 63 0 c60 1 66 3 120 47
31 25 65 54 76 63 10 10 37 29 60 44 46 30 80 70 71 85 -10 17 -23 11 -29 -14
-3 -14 -28 -39 -61 -61 -30 -20 -80 -58 -111 -85 -57 -50 -90 -68 -102 -55 -4
4 0 10 8 13 8 2 37 28 64 56 26 28 73 65 104 81 57 31 63 38 78 89 5 16 21 38
36 49 23 18 31 19 54 8 23 -10 25 -15 19 -48 -6 -36 -65 -99 -140 -150 -17
-12 -39 -33 -49 -48 -9 -14 -33 -33 -51 -42 -40 -19 -45 -33 -12 -33 14 0 40
18 67 46 56 58 206 184 218 184 22 0 4 -78 -26 -116 -17 -22 -38 -56 -47 -78
-9 -21 -28 -56 -41 -78 -24 -37 -28 -40 -60 -33 -19 3 -56 17 -82 31 -43 23
-56 25 -143 22 -100 -4 -124 -13 -139 -53 -10 -28 -3 -41 37 -66 74 -46 139
-244 130 -391 -4 -66 -11 -90 -46 -157 -23 -44 -47 -104 -55 -133 -25 -97 -49
-163 -68 -187 -20 -26 -23 -62 -8 -92 8 -13 7 -19 0 -19 -6 0 -13 7 -16 15
-10 25 -27 17 -20 -10 6 -23 5 -24 -13 -13 -36 22 -34 0 1 -34 25 -23 40 -51
52 -93 10 -33 28 -76 40 -95 30 -45 73 -137 81 -173 5 -18 2 -35 -9 -51 l-15
-24 -51 21 c-41 17 -50 25 -50 46 -1 15 -7 37 -15 51 -8 14 -15 52 -15 85 -1
110 -34 185 -82 185 -26 0 -22 -17 5 -24 34 -8 58 -67 58 -145 0 -36 6 -87 14
-113 12 -42 12 -50 -2 -63 -11 -11 -25 -14 -47 -9 -57 12 -66 28 -66 123 0 69
-4 93 -21 120 -25 41 -37 35 -15 -8 21 -40 23 -201 3 -201 -20 0 -35 39 -40
103 -2 32 -9 63 -15 69 -18 18 -24 4 -12 -26 14 -37 13 -126 -1 -126 -26 0
-38 36 -39 108 0 54 -3 73 -12 69 -10 -3 -12 -27 -9 -90 3 -82 2 -87 -17 -87
-12 0 -23 4 -26 8 -7 12 -8 123 0 155 7 30 -13 39 -22 10 -3 -10 -10 -26 -15
-36 -5 -10 -7 -22 -3 -28 3 -6 9 -35 13 -65 7 -52 7 -55 -13 -52 -19 3 -21 8
-18 64 3 46 0 63 -12 73 -9 8 -16 20 -16 27 0 8 -7 14 -15 14 -20 0 -19 -7 5
-37 38 -49 18 -128 -30 -121 -19 2 -27 13 -36 45 -12 42 -8 58 12 45 6 -4 14
-16 19 -27 7 -18 9 -18 12 -3 3 10 -5 32 -17 48 -18 25 -20 34 -10 46 19 22 3
30 -19 10 -19 -17 -20 -17 -33 3 -13 22 -28 28 -28 12 0 -5 11 -23 25 -39 19
-23 24 -37 19 -61 -4 -17 -2 -37 5 -44 14 -18 2 -30 -16 -16 -7 6 -13 31 -13
55 0 34 -7 51 -31 79 -17 19 -35 32 -41 29 -5 -4 4 -21 21 -38 35 -36 41 -79
15 -107 -13 -14 -20 -16 -40 -7 -28 13 -29 18 -9 44 22 29 18 69 -11 104 -22
26 -25 35 -16 54 8 19 21 24 74 31 86 11 103 9 177 -15 35 -11 76 -20 92 -20
18 0 38 -10 54 -27 l26 -28 -6 27 c-6 24 -2 29 43 52 68 34 102 77 102 127 0
21 -4 39 -10 39 -5 0 -10 -17 -10 -38 0 -44 -28 -76 -99 -112 -36 -18 -56 -21
-98 -17 -65 7 -120 33 -146 68 -28 39 -28 121 1 152 12 13 22 30 22 39 0 34
39 67 88 74 26 3 55 14 65 23 21 17 20 18 90 -73 19 -24 36 -36 52 -36 32 0
32 16 0 27 -14 4 -42 31 -63 58 -23 31 -47 51 -62 53 -13 2 -34 11 -47 19 -18
12 -39 14 -96 9 -51 -5 -92 -3 -138 8 -36 8 -76 12 -87 9 -31 -8 -29 32 3 79
14 20 34 59 45 87 11 28 31 74 45 101 14 27 25 67 25 88 0 22 5 54 11 71 8 24
9 39 0 57 -14 30 -22 30 -54 -2 -17 -17 -32 -24 -44 -20 -14 6 -9 14 28 52
l44 45 -30 24 c-35 28 -48 30 -64 11 -8 -10 -9 -16 -1 -21 11 -7 14 -68 3 -78
-3 -4 -15 0 -25 9 -15 14 -20 15 -34 3 -10 -8 -34 -14 -55 -14 -43 0 -54 -18
-14 -23 24 -3 36 -22 14 -22 -15 0 -109 -61 -109 -71 0 -4 10 -9 23 -11 14 -2
23 -11 25 -25 4 -25 46 -63 71 -63 9 0 27 -7 39 -16 12 -8 28 -14 34 -12 20 7
-34 47 -71 54 -36 7 -51 19 -51 42 0 8 10 5 29 -9 18 -13 38 -20 50 -16 12 3
31 -3 46 -15 30 -24 41 -19 25 11 -6 12 -8 36 -5 55 6 28 2 36 -24 59 -40 33
-22 46 21 15 18 -13 41 -27 52 -33 53 -28 44 -90 -37 -250 -29 -58 -51 -116
-52 -137 -2 -26 -11 -47 -31 -67 -16 -16 -38 -42 -50 -57 -27 -35 -44 -24 -44
28 0 54 -17 146 -41 228 -51 170 -32 322 50 416 25 28 61 70 79 93 19 24 58
54 90 70 81 41 96 60 88 113 -4 24 -20 66 -35 93 -15 28 -31 73 -35 100 -6 50
-19 114 -32 169 -8 33 20 96 43 96 22 0 34 -48 43 -174 8 -105 13 -128 39
-179 31 -60 40 -107 21 -107 -5 0 -10 12 -10 26 0 14 -8 38 -19 52 -30 43 -51
101 -51 146 -1 64 -16 126 -35 144 -17 16 -17 16 -10 -3 12 -34 35 -148 35
-178 0 -15 16 -58 35 -96 19 -37 35 -77 35 -89 0 -13 7 -25 15 -28 8 -4 15
-13 15 -21 0 -10 6 -13 16 -9 8 3 24 1 34 -4 26 -14 49 -2 56 29 4 14 10 31
14 36 5 6 7 59 5 119 -5 127 5 163 73 281 49 84 61 97 126 132 45 23 56 22 56
-8z m100 11 c0 -11 -6 -30 -12 -41 -11 -18 -10 -23 10 -39 l24 -19 -46 -58
c-25 -32 -70 -89 -101 -127 -30 -37 -62 -84 -70 -103 -17 -40 -21 -148 -5
-138 6 3 10 28 10 55 0 60 19 94 119 215 41 50 92 118 114 153 21 34 44 62 51
62 24 -1 48 -28 42 -48 -4 -11 -58 -75 -121 -142 -108 -114 -116 -127 -137
-194 -24 -80 -69 -136 -94 -115 -8 6 -14 23 -14 37 0 13 -5 41 -11 61 -19 62
1 106 96 216 81 94 95 115 77 115 -10 0 -163 -175 -178 -203 -22 -42 -25 -95
-9 -149 9 -32 12 -55 6 -61 -11 -11 -26 40 -36 118 -5 42 -1 59 24 110 39 82
227 315 253 315 4 0 8 -9 8 -20z m-457 -31 c34 -16 48 -43 38 -76 -35 -111
-42 -148 -42 -216 -1 -80 -12 -101 -23 -44 -10 45 -10 64 -1 129 9 68 -2 168
-18 168 -9 0 -11 -38 -10 -142 2 -140 3 -142 38 -211 35 -71 44 -107 24 -107
-5 0 -8 4 -4 9 3 5 -6 31 -21 58 -43 81 -54 123 -54 218 0 50 -6 115 -14 145
-10 39 -11 59 -4 67 13 16 59 17 91 2z m187 -16 c0 -4 -23 -54 -52 -112 -49
-101 -52 -111 -56 -201 l-5 -95 -14 55 c-16 62 -12 108 16 172 26 61 35 108
22 108 -6 0 -16 -12 -22 -27 -7 -16 -16 -37 -21 -48 -14 -31 -25 -159 -16
-191 22 -77 26 -105 15 -101 -34 11 -49 196 -22 272 8 22 15 50 15 61 0 27 34
71 74 95 31 19 66 25 66 12z m-371 -216 c12 -51 21 -102 21 -115 0 -12 16 -54
35 -92 49 -97 47 -140 -4 -86 -13 13 -49 34 -82 46 -33 13 -59 29 -59 36 0 8
5 14 10 14 6 0 10 -5 10 -11 0 -7 10 -9 25 -7 14 3 30 -1 36 -8 12 -14 39 -19
39 -7 0 3 -8 15 -17 25 -11 13 -16 33 -14 66 1 33 -6 65 -24 105 -14 32 -25
69 -25 83 0 16 -5 24 -12 21 -8 -2 -12 -17 -10 -35 4 -42 -9 -40 -31 4 -17 35
-17 35 9 59 24 22 28 23 49 9 17 -11 28 -36 44 -107z m-138 43 c27 -15 49 -63
48 -107 l0 -38 -27 58 c-16 36 -32 57 -43 57 -14 0 -11 -11 16 -66 27 -55 31
-72 24 -98 -5 -17 -9 -33 -9 -36 0 -3 -7 4 -15 14 -8 11 -15 40 -15 65 -1 36
-7 54 -30 81 -36 41 -37 53 -7 68 29 14 34 14 58 2z m-90 -62 c13 -18 29 -37
36 -41 8 -5 13 -27 13 -53 0 -58 14 -84 45 -84 14 0 25 -4 25 -10 0 -5 -17
-10 -38 -10 -57 0 -95 49 -106 140 -3 25 -9 55 -12 68 -9 33 11 27 37 -10z
m193 -49 c16 -45 14 -129 -4 -129 -21 0 -30 28 -19 59 9 25 9 43 0 71 -23 79
-7 78 23 -1z m1532 -44 c79 -82 93 -138 55 -213 -26 -51 -69 -75 -174 -96 -42
-9 -100 -25 -128 -36 -28 -12 -56 -19 -61 -18 -13 5 83 64 127 78 82 26 134
62 166 114 36 57 40 90 14 114 -17 16 -17 15 -11 -17 12 -68 -51 -145 -146
-176 -63 -21 -101 -42 -165 -96 -26 -21 -54 -39 -63 -39 -9 1 -3 9 15 23 17
12 64 54 106 93 41 39 89 78 105 87 39 20 114 102 114 124 0 10 -9 32 -20 48
-46 69 2 77 66 10z m-144 -75 l31 -34 -33 -26 c-18 -14 -80 -69 -136 -122
-102 -95 -144 -123 -152 -99 -2 7 -15 16 -28 21 -39 15 -29 33 14 25 47 -8 75
12 126 89 20 30 59 71 88 92 29 20 48 39 41 41 -16 6 -88 -42 -110 -72 -55
-79 -97 -128 -101 -117 -2 6 5 24 16 39 11 16 29 51 41 78 12 28 41 68 64 91
23 22 48 49 56 59 14 17 15 17 33 -6 11 -13 33 -40 50 -59z m-1597 -1 c9 -16
23 -29 32 -29 13 0 14 -3 5 -12 -9 -9 -15 -9 -24 0 -7 7 -19 12 -27 12 -9 0
-29 11 -46 25 -28 23 -29 24 -8 25 12 0 25 5 28 10 9 14 22 4 40 -31z m155 19
c0 -16 -3 -19 -11 -11 -6 6 -8 16 -5 22 11 17 16 13 16 -11z m-316 -43 c42
-29 58 -35 103 -35 29 0 53 -2 53 -4 0 -2 -7 -17 -15 -32 -8 -16 -15 -39 -15
-51 0 -32 -18 -38 -26 -8 -3 14 -11 25 -18 26 -6 0 0 5 14 11 l25 11 -30 7
c-35 8 -155 86 -155 100 0 17 13 11 64 -25z m64 19 c36 -18 47 -30 33 -39 -13
-7 -91 32 -91 45 0 14 22 12 58 -6z m264 -63 c13 -5 35 -12 50 -15 40 -9 81
-47 73 -69 -10 -24 -54 -22 -82 5 -27 25 -44 17 -20 -10 18 -20 23 -52 8 -52
-5 0 -23 17 -40 37 -41 50 -50 35 -12 -21 36 -55 17 -64 -23 -11 -29 37 -64
61 -74 50 -4 -4 5 -17 19 -28 38 -32 66 -84 52 -98 -7 -7 -19 4 -42 40 -17 28
-33 51 -36 51 -12 0 -3 -30 20 -64 39 -57 28 -90 -17 -49 -10 9 -21 13 -25 9
-4 -4 5 -18 21 -32 15 -14 26 -29 24 -33 -2 -4 -24 -26 -50 -50 -34 -31 -58
-44 -88 -48 -41 -6 -57 10 -21 22 10 3 37 19 59 34 l39 29 -14 88 c-16 108 -6
162 39 199 32 27 95 34 140 16z m-313 -22 c13 -11 22 -22 19 -25 -10 -9 -58
16 -58 31 0 20 10 19 39 -6z m68 -62 c3 -4 1 -13 -5 -20 -7 -8 -9 -17 -5 -20
3 -4 -7 -7 -24 -7 -17 0 -46 -11 -66 -25 -41 -27 -57 -17 -33 20 10 15 31 27
58 33 l43 10 -37 1 c-21 1 -38 6 -38 12 0 12 94 8 107 -4z m1239 -42 c77 -45
87 -107 36 -209 -16 -32 -22 -57 -18 -76 5 -27 3 -28 -30 -27 -28 1 -42 8 -62
34 -28 38 -20 63 15 44 14 -7 23 -7 31 1 18 18 14 30 -8 23 -12 -4 -26 0 -35
9 -22 21 -19 26 15 26 17 0 30 5 30 10 0 6 -13 10 -29 10 -39 0 -49 17 -18 29
31 12 82 59 74 68 -4 3 -17 1 -30 -6 -13 -7 -27 -11 -33 -10 -5 1 -17 -1 -26
-5 -19 -9 -71 21 -65 38 2 6 16 12 30 14 15 2 27 8 27 13 0 5 -2 9 -4 9 -2 0
-11 3 -20 6 -10 4 -27 -5 -46 -26 -25 -26 -32 -30 -50 -20 -41 22 -16 58 54
75 50 13 106 2 162 -30z m-1186 -142 c0 -28 -6 -35 -40 -53 -46 -24 -60 -25
-60 -6 0 15 21 26 50 26 30 0 44 35 28 70 -13 30 -28 40 -28 19 0 -6 -8 -8
-19 -4 -13 4 -24 -1 -35 -16 -14 -21 -16 -21 -22 -4 -8 20 18 45 48 45 10 0
25 12 35 26 l17 26 12 -49 c7 -26 13 -63 14 -80z m1808 85 c-5 -67 -38 -84
-185 -91 -65 -3 -119 -4 -121 -2 -7 6 71 26 137 35 35 4 68 14 75 20 28 30
-183 -15 -264 -56 -50 -25 -76 -26 -52 -2 17 17 165 70 277 100 22 5 56 16 75
23 57 21 61 20 58 -27z m-1885 25 c3 -5 -18 -18 -45 -30 -53 -24 -62 -11 -12
18 32 19 50 23 57 12z m1392 -64 c4 -5 -1 -19 -10 -29 -15 -17 -16 -22 -4 -36
7 -9 24 -20 37 -25 13 -5 20 -13 17 -19 -10 -16 -30 -12 -60 14 -23 20 -26 28
-20 57 11 50 25 64 40 38z m-1359 -22 c8 3 14 -1 14 -10 0 -9 -10 -19 -22 -23
-13 -4 -26 -11 -29 -17 -4 -5 -12 -7 -17 -3 -7 4 -5 16 6 36 10 17 21 25 26
20 4 -4 15 -6 22 -3z m1748 -68 c14 -11 26 -25 26 -29 0 -18 -55 -38 -120 -45
-36 -3 -122 -20 -192 -37 -138 -33 -172 -32 -190 7 -9 19 -7 29 6 49 9 14 16
32 16 41 0 8 5 15 10 15 6 0 10 -4 10 -9 0 -17 31 -41 53 -41 12 0 33 6 47 13
54 28 98 40 185 47 50 4 97 8 106 8 9 1 28 -7 43 -19z m-1675 -93 c-8 -7 -44
-18 -80 -24 -84 -15 -89 -15 -89 2 0 17 76 32 113 22 17 -4 30 1 43 15 12 13
20 16 22 9 3 -7 -2 -18 -9 -24z m1754 -24 c46 -47 36 -62 -42 -62 -31 0 -99
-9 -151 -19 -212 -42 -334 -35 -405 23 -41 34 -10 35 53 1 49 -26 103 -32 148
-15 14 6 74 14 133 19 109 9 161 24 161 48 0 7 -4 13 -10 13 -5 0 -10 -4 -10
-8 0 -16 -76 -32 -148 -32 -39 0 -92 -7 -118 -16 -55 -18 -70 -20 -108 -10
-38 9 -27 17 28 21 25 1 67 10 93 18 46 16 261 53 313 56 18 1 38 -11 63 -37z
m-1763 -22 c0 -19 -44 -33 -106 -33 -58 -1 -61 -2 -43 -15 16 -11 31 -12 69
-5 33 7 52 7 60 -1 20 -20 9 -26 -57 -26 -55 0 -71 4 -90 22 -13 12 -23 30
-23 40 0 15 6 17 43 12 23 -2 56 -1 72 5 40 12 75 13 75 1z m153 -19 c-3 -13
2 -21 17 -26 30 -9 47 9 29 31 -12 14 -11 16 6 13 43 -9 24 -69 -21 -69 -25 0
-60 42 -49 60 11 17 23 11 18 -9z m1027 -50 c70 -37 140 -46 263 -32 62 7 137
19 168 27 80 20 138 18 177 -6 27 -16 33 -26 30 -48 -3 -27 -4 -27 -64 -24
-35 2 -124 -7 -215 -23 -170 -29 -207 -28 -303 11 -75 30 -108 52 -100 65 3 6
25 -1 52 -18 43 -25 55 -28 137 -26 147 2 333 17 344 28 13 13 -173 8 -242 -5
-90 -18 -152 -13 -222 21 -35 16 -67 34 -70 40 -9 14 7 11 45 -10z m-1350 -33
c0 -30 33 -48 91 -48 32 0 61 -4 64 -10 4 -6 -19 -10 -63 -10 -62 0 -71 2 -96
29 -16 16 -25 34 -22 40 9 15 26 14 26 -1z m160 -8 c0 -5 -17 -10 -37 -10 -21
0 -47 -3 -58 -6 -11 -3 -29 2 -40 10 -18 14 -14 15 58 16 45 0 77 -4 77 -10z
m1190 -56 l25 -15 -25 5 c-14 3 -31 6 -37 6 -7 0 -13 5 -13 10 0 14 21 12 50
-6z m580 -22 c0 -24 -19 -42 -45 -42 -31 0 -38 11 -17 26 15 12 15 13 1 14 -9
0 -30 -5 -48 -11 -17 -6 -43 -8 -59 -4 -26 8 -25 8 18 20 25 7 69 13 98 14 44
1 52 -2 52 -17z m-530 -30 c58 -26 75 -27 298 -6 46 4 72 3 72 -3 0 -15 -209
-37 -282 -30 -59 5 -187 53 -188 70 0 10 30 1 100 -31z m48 16 c39 -11 41 -18
5 -18 -16 0 -39 10 -53 21 -20 17 -21 20 -5 14 11 -4 35 -11 53 -17z m-1300
-5 c2 -9 -11 -13 -45 -13 -27 0 -55 6 -62 13 -10 10 -12 8 -9 -8 3 -18 11 -20
71 -20 73 0 89 -15 36 -34 -44 -15 -81 -14 -107 5 -24 17 -29 43 -10 62 17 17
120 12 126 -5z m1256 -88 c66 -34 118 -55 138 -55 60 1 331 39 340 48 10 10 0
10 -180 -8 -163 -16 -184 -14 -278 27 -46 20 -82 38 -81 40 2 1 37 -8 77 -22
40 -14 92 -25 114 -25 46 0 203 24 254 39 25 8 45 5 92 -12 33 -12 59 -26 57
-31 -13 -40 -167 -86 -287 -86 -103 0 -201 27 -279 78 -35 23 -68 42 -73 42
-4 0 -8 5 -8 10 0 14 -3 15 114 -45z m-1214 1 c0 -8 -16 -15 -42 -19 -57 -8
-72 5 -23 19 54 17 65 17 65 0z m1181 -30 c42 -25 103 -52 136 -60 83 -22 222
-20 310 3 81 21 93 16 93 -35 0 -47 -23 -61 -56 -35 -24 19 -40 21 -158 21
-72 0 -151 5 -176 10 -47 10 -270 119 -270 133 0 19 52 3 121 -37z m-1301 8
c0 -8 -4 -14 -10 -14 -5 0 -10 2 -10 4 0 2 -3 12 -6 20 -5 12 -2 15 10 10 9
-3 16 -12 16 -20z m135 -23 c-16 -14 -108 -39 -142 -38 -22 0 -33 5 -33 15 0
10 9 12 38 8 24 -4 46 -1 62 9 27 15 90 21 75 6z m1080 -2 c22 -6 63 -28 90
-49 65 -50 148 -88 208 -96 59 -8 62 -24 3 -24 -57 0 -120 27 -178 78 -44 38
-97 63 -161 77 -15 3 -25 10 -22 15 8 12 11 12 60 -1z m-20 -49 c4 -6 -7 -10
-24 -10 -17 0 -31 5 -31 10 0 6 11 10 24 10 14 0 28 -4 31 -10z m-1138 -13
c-4 -13 -46 -26 -64 -19 -28 10 -11 27 27 28 26 1 39 -3 37 -9z m28 -33 c-16
-8 -41 -26 -56 -40 -28 -27 -49 -31 -49 -10 0 18 19 33 66 50 53 20 76 20 39
0z m1226 -10 c19 -14 53 -35 77 -46 24 -11 41 -22 39 -25 -13 -12 -102 12
-140 38 -23 16 -50 29 -59 29 -24 0 -48 11 -48 21 0 5 22 9 48 9 36 0 57 -6
83 -26z m-1163 -11 c2 -8 -5 -13 -19 -13 -15 0 -43 -19 -75 -51 -46 -45 -54
-50 -73 -40 -25 14 -28 31 -3 31 9 0 44 21 77 45 59 45 84 52 93 28z m306 2
c40 -12 67 -13 117 -6 64 8 109 1 109 -19 0 -6 -25 -10 -59 -10 -68 0 -80 -10
-88 -69 -3 -23 -12 -46 -21 -53 -13 -12 -14 -5 -10 55 5 63 -1 83 -18 55 -4
-7 -6 -33 -5 -59 3 -63 -16 -73 -24 -12 -9 74 -24 96 -73 106 -23 4 -42 12
-42 18 0 14 55 11 114 -6z m1021 5 l20 -9 -20 0 c-11 0 -27 4 -35 9 -13 9 -13
10 0 9 8 0 24 -4 35 -9z m255 -15 c16 -20 -8 -33 -65 -35 -73 -3 -87 -1 -81 9
4 5 -13 13 -36 18 l-43 8 65 5 c119 9 149 8 160 -5z m-1365 -26 c49 -33 65
-55 65 -90 0 -12 11 -37 25 -55 18 -23 25 -45 25 -76 0 -48 -5 -57 -40 -81
-48 -33 -131 -9 -184 53 -30 37 -31 40 -12 85 13 31 12 45 -4 45 -4 0 -13 -25
-20 -55 -7 -30 -21 -62 -31 -71 -10 -9 -23 -42 -30 -73 -7 -31 -15 -60 -19
-64 -4 -4 -19 2 -33 13 -20 16 -27 30 -27 58 0 31 8 44 60 94 54 53 71 78 54
78 -4 0 -28 -20 -54 -44 -63 -59 -84 -70 -100 -51 -10 12 -1 28 56 91 37 42
70 71 72 65 2 -6 -22 -39 -53 -72 -31 -34 -53 -64 -50 -68 4 -3 29 18 56 47
27 28 53 52 59 52 5 0 10 11 10 24 0 18 7 25 30 29 17 4 36 18 46 34 19 30 45
63 50 63 2 0 23 -14 49 -31z m795 9 c17 -11 22 -10 29 1 8 12 23 8 90 -22 50
-23 95 -37 120 -37 22 0 43 -4 46 -10 9 -15 25 -12 25 3 0 11 17 13 78 10 42
-3 91 -9 108 -14 39 -12 68 -43 61 -64 -9 -21 -40 -19 -61 4 -22 25 -47 30
-166 35 -53 2 -115 12 -140 21 -25 9 -59 21 -76 26 -18 5 -37 16 -44 24 -11
14 -40 21 -40 11 0 -34 86 -87 170 -106 30 -6 67 -15 83 -20 21 -6 27 -5 27 6
0 10 12 14 40 14 41 0 52 -14 28 -38 -42 -42 -293 30 -341 97 -6 10 -27 26
-44 35 -18 9 -33 21 -33 26 0 14 16 12 40 -2z m-1053 -42 c-20 -18 -37 -41
-37 -49 0 -9 -9 -23 -21 -31 -12 -8 -19 -20 -17 -27 2 -7 14 2 28 21 49 64 92
102 104 90 8 -8 6 -14 -9 -22 -11 -7 -29 -23 -40 -36 -11 -14 -37 -43 -57 -66
l-36 -41 -7 28 c-4 15 -5 37 -1 50 8 31 89 117 111 117 15 0 11 -8 -18 -34z
m1173 -101 c19 -10 30 -20 23 -22 -27 -9 -159 79 -147 98 3 5 24 -6 47 -25 23
-18 58 -42 77 -51z m-117 31 c21 -27 44 -40 114 -63 48 -17 106 -38 128 -46
45 -18 130 -23 120 -7 -3 6 -16 8 -28 5 -19 -5 -125 32 -115 39 3 3 217 -18
246 -23 9 -2 -1 -31 -17 -45 -31 -28 -112 -32 -178 -8 -32 11 -84 28 -116 37
-71 19 -145 63 -175 104 -24 33 -27 41 -13 41 5 0 20 -15 34 -34z m-38 -84
c21 -24 55 -52 74 -62 20 -10 45 -28 55 -39 11 -12 38 -30 60 -40 23 -10 47
-25 55 -34 15 -19 31 -22 31 -7 0 5 -28 28 -62 51 -35 23 -74 52 -88 64 -14
13 -35 26 -47 29 -28 9 -100 89 -84 94 6 2 29 -12 50 -31 38 -35 72 -50 210
-97 l76 -25 -3 -45 c-3 -47 -28 -80 -61 -80 -9 0 -53 18 -96 39 -59 29 -97 57
-146 108 -80 83 -111 122 -103 134 7 12 32 -6 79 -59z m21 -97 c52 -59 103
-98 146 -108 15 -4 32 -16 38 -28 22 -39 -33 -88 -87 -77 -10 2 -31 25 -48 52
-16 26 -53 75 -82 109 -82 96 -50 82 48 -22 49 -52 92 -91 96 -88 5 6 -109
139 -156 181 -11 11 -21 23 -21 28 0 20 22 4 66 -47z m-857 -26 c34 -27 35
-35 9 -71 -10 -14 -8 -21 15 -42 39 -36 45 -72 16 -102 -20 -22 -25 -23 -38
-10 -12 13 -13 19 -2 39 14 27 12 58 -5 64 -7 2 -10 -6 -7 -22 6 -31 -10 -33
-24 -2 -12 25 0 71 26 101 15 17 15 18 -4 15 -11 -3 -28 -21 -38 -43 -10 -21
-21 -36 -24 -33 -8 8 7 86 18 93 12 7 11 34 -2 34 -14 0 -39 -63 -39 -100 0
-16 -4 -30 -10 -30 -15 0 -12 69 6 119 22 63 23 65 47 39 12 -13 37 -35 56
-49z m742 -10 c10 -24 42 -84 73 -133 31 -49 56 -95 56 -101 0 -7 7 -18 15
-25 10 -8 15 -9 15 -1 0 19 -57 129 -87 168 -16 21 -39 63 -51 93 l-21 55 22
-29 c12 -17 38 -48 58 -70 20 -23 48 -63 62 -91 14 -27 37 -61 51 -74 32 -30
32 -36 0 -66 -46 -43 -70 -34 -102 38 -16 34 -40 79 -55 100 -14 21 -29 52
-32 70 -4 18 -16 49 -26 69 -22 44 -23 51 -7 46 7 -3 20 -25 29 -49z"/>
<path d="M2500 4390 c-7 -16 -26 -51 -43 -77 -17 -27 -37 -68 -44 -93 -16 -61
-17 -234 0 -248 9 -8 11 14 8 109 -3 114 -2 120 24 166 86 151 95 173 76 173
-5 0 -14 -13 -21 -30z"/>
<path d="M3128 4292 c-26 -15 -73 -58 -105 -96 -32 -39 -82 -86 -111 -106 -61
-43 -105 -83 -134 -123 -40 -55 -7 -39 64 31 39 40 76 72 82 72 6 0 51 42 101
93 49 51 108 107 130 124 49 39 36 42 -27 5z"/>
<path d="M3211 4059 c-62 -74 -124 -138 -130 -136 -3 1 -7 -2 -9 -8 -1 -5 5
-11 15 -13 12 -2 34 17 63 53 25 31 60 74 79 96 18 21 28 39 21 39 -7 0 -24
-14 -39 -31z"/>
<path d="M2563 3689 c-7 -7 -10 -29 -6 -59 5 -45 4 -47 -36 -79 -23 -18 -39
-37 -35 -42 3 -5 17 0 31 11 14 11 32 20 39 20 20 0 41 58 39 109 -1 46 -12
60 -32 40z"/>
<path d="M2598 3540 c-14 -10 -31 -34 -38 -52 -6 -18 -17 -43 -23 -55 -12 -26
-2 -42 15 -25 7 7 32 12 56 12 35 0 52 6 79 30 58 51 90 30 35 -23 -21 -20
-38 -27 -69 -27 -24 0 -46 -6 -53 -15 -16 -19 -5 -34 12 -17 7 7 30 12 53 12
48 0 78 18 99 62 22 43 21 47 -21 65 -21 8 -48 24 -62 34 -30 24 -52 24 -83
-1z m76 -43 c8 -13 6 -22 -11 -38 -24 -25 -66 -20 -77 7 -9 24 2 30 17 10 10
-13 20 -16 35 -12 23 8 28 21 12 31 -14 9 -13 28 2 23 6 -2 16 -12 22 -21z"/>
<path d="M2810 3358 c0 -30 -31 -79 -95 -153 -29 -33 -62 -79 -74 -102 -22
-44 -28 -93 -11 -93 6 0 10 8 10 18 1 37 44 109 101 169 33 34 66 78 74 97 17
41 20 86 5 86 -5 0 -10 -10 -10 -22z"/>
<path d="M2477 3274 c-4 -4 -4 -37 -1 -74 5 -45 3 -69 -5 -74 -16 -10 -14 -26
4 -26 24 0 37 49 31 110 -7 55 -16 76 -29 64z"/>
<path d="M2670 2756 c0 -3 11 -22 25 -42 30 -44 43 -89 48 -166 3 -46 12 -69
41 -113 20 -30 38 -55 41 -55 13 0 2 30 -28 76 -25 38 -36 67 -40 110 -8 82
-13 99 -39 146 -20 36 -48 62 -48 44z"/>
<path d="M2580 2672 c0 -5 12 -17 26 -27 l27 -17 -6 -103 c-5 -81 -3 -106 8
-115 11 -9 13 -3 12 37 0 26 3 73 7 103 7 49 5 59 -16 90 -22 33 -58 53 -58
32z"/>
<path d="M3293 3630 c-44 -10 -95 -26 -112 -34 -41 -22 -52 -20 -78 12 l-22
27 -1 -27 c0 -53 43 -58 151 -19 31 11 91 24 133 28 42 4 78 13 79 18 4 17
-64 15 -150 -5z"/>
<path d="M1135 2116 c-150 -63 -199 -217 -110 -346 31 -45 90 -78 205 -115
156 -51 205 -88 205 -155 0 -73 -68 -130 -156 -130 -96 0 -195 79 -250 200
-18 39 -28 50 -46 50 -22 0 -23 -2 -23 -94 0 -140 8 -186 33 -186 11 0 29 7
38 16 17 15 23 15 81 -7 54 -20 81 -24 183 -24 111 0 124 2 177 28 181 89 194
314 24 411 -22 13 -92 40 -154 61 -135 44 -182 80 -182 139 0 78 54 126 141
126 82 0 157 -68 206 -186 14 -33 23 -44 41 -44 22 0 22 2 22 130 l0 130 -27
0 c-14 0 -34 -7 -43 -15 -15 -14 -22 -13 -66 7 -37 16 -73 23 -144 25 -83 3
-102 1 -155 -21z"/>
<path d="M2818 2121 c-77 -25 -118 -52 -177 -116 -75 -83 -95 -144 -96 -285 0
-109 2 -119 32 -182 40 -84 97 -142 181 -181 57 -27 81 -32 164 -35 116 -5
181 12 254 67 42 31 114 120 114 140 0 3 -10 12 -22 20 -18 11 -22 11 -31 -5
-5 -11 -35 -44 -66 -75 -42 -41 -69 -59 -103 -67 -96 -24 -164 -8 -224 52 -60
59 -84 143 -84 291 0 227 73 345 213 345 95 0 171 -69 222 -202 14 -39 22 -48
42 -48 l24 0 -2 140 -3 140 -25 0 c-13 0 -32 -7 -41 -15 -15 -14 -22 -13 -66
7 -69 31 -225 36 -306 9z"/>
<path d="M1730 2101 c0 -14 9 -21 33 -26 17 -4 42 -13 55 -21 l22 -14 0 -314
c0 -245 -3 -316 -13 -324 -7 -6 -32 -14 -55 -18 -32 -5 -42 -11 -42 -25 0 -18
15 -19 359 -19 l359 0 6 63 c13 133 11 182 -6 185 -11 2 -28 -18 -53 -66 -20
-38 -50 -82 -66 -98 -29 -28 -35 -29 -139 -32 -162 -5 -150 -32 -150 342 0
343 -3 330 75 342 35 5 45 10 45 25 0 18 -11 19 -215 19 -205 0 -215 -1 -215
-19z"/>
<path d="M3380 2102 c0 -15 9 -22 33 -27 17 -4 42 -13 55 -21 l22 -14 0 -316
0 -315 -35 -15 c-19 -7 -44 -14 -55 -14 -13 0 -20 -7 -20 -20 0 -19 7 -20 263
-20 281 0 338 7 418 51 111 61 118 230 11 302 -39 27 -120 57 -152 57 -34 0
-22 16 23 29 109 32 160 87 161 171 0 65 -28 105 -94 138 l-55 27 -287 3
c-282 4 -288 3 -288 -16z m450 -47 c44 -23 63 -67 58 -136 -3 -45 -10 -65 -29
-85 -35 -38 -72 -54 -124 -54 l-45 0 0 145 0 145 55 0 c31 0 69 -7 85 -15z
m21 -351 c49 -29 72 -67 77 -127 6 -71 -11 -119 -54 -157 -29 -25 -43 -30 -87
-30 -94 0 -97 5 -97 187 l0 156 65 -5 c36 -3 78 -14 96 -24z"/>
<path d="M1505 1005 c-2 -5 -9 -43 -15 -83 -10 -62 -14 -71 -24 -56 -17 23
-58 12 -81 -22 -27 -42 -41 -135 -24 -170 15 -32 51 -43 75 -24 10 9 14 9 14
1 0 -6 14 -11 30 -11 17 0 30 2 30 6 0 3 11 73 24 157 36 225 36 212 2 212
-15 1 -30 -4 -31 -10z m-37 -235 c-8 -78 -48 -108 -48 -35 0 47 16 85 36 85
14 0 16 -8 12 -50z"/>
<path d="M1795 1007 c-5 -16 -55 -340 -55 -355 0 -7 13 -12 30 -12 17 0 30 2
30 5 0 2 11 73 25 157 35 221 35 210 2 214 -16 1 -30 -3 -32 -9z"/>
<path d="M3565 1006 c-4 -13 -55 -347 -55 -358 0 -5 13 -8 30 -8 25 0 30 4 35
33 27 157 53 333 49 338 -6 11 -55 7 -59 -5z"/>
<path d="M1890 970 c-24 -24 -25 -34 -5 -54 16 -15 44 -11 57 8 13 19 9 54 -8
60 -22 8 -22 8 -44 -14z"/>
<path d="M2542 974 c-27 -18 -29 -50 -4 -63 39 -21 81 36 50 67 -15 15 -19 15
-46 -4z"/>
<path d="M1624 868 c-56 -27 -89 -164 -49 -208 26 -29 79 -27 110 5 14 13 25
29 25 35 0 15 -41 12 -60 -5 -15 -14 -18 -14 -30 0 -23 28 -4 45 49 45 54 0
61 8 61 64 0 60 -52 91 -106 64z m50 -55 c8 -21 -6 -36 -32 -31 -16 2 -18 7
-11 26 10 26 34 29 43 5z"/>
<path d="M1898 872 c-22 -3 -28 -10 -33 -35 -2 -18 -9 -59 -15 -91 -16 -96
-15 -106 19 -106 l29 0 17 115 c10 64 16 117 14 118 -2 1 -16 1 -31 -1z"/>
<path d="M2219 865 c-56 -30 -84 -161 -44 -205 26 -29 79 -27 110 5 14 13 25
29 25 35 0 16 -46 12 -60 -5 -16 -19 -40 -3 -40 26 0 16 8 19 54 19 47 0 54 3
60 23 10 39 6 64 -15 91 -23 29 -51 32 -90 11z m51 -60 c0 -20 -5 -25 -25 -25
-28 0 -29 3 -15 31 15 28 40 24 40 -6z"/>
<path d="M2398 872 c-16 -2 -28 -6 -28 -10 0 -4 -7 -47 -15 -97 -20 -125 -20
-125 14 -125 28 0 30 3 36 48 12 86 28 127 52 130 15 2 25 13 29 28 9 34 -1
40 -30 21 -18 -12 -25 -13 -28 -4 -2 7 -15 11 -30 9z"/>
<path d="M2702 864 c-12 -8 -22 -10 -22 -5 0 6 -15 11 -33 11 l-33 0 -12 -86
c-7 -47 -15 -99 -19 -115 -6 -29 -5 -30 28 -27 l33 3 12 77 c13 84 20 102 36
92 10 -6 7 -69 -8 -143 -7 -32 -6 -32 27 -29 l34 3 14 108 c13 94 13 110 0
118 -20 12 -31 11 -57 -7z"/>
<path d="M2833 858 c-37 -41 -56 -155 -33 -199 11 -20 54 -26 65 -9 14 23 22
8 15 -26 -11 -47 -30 -61 -49 -34 -7 11 -24 20 -37 20 -19 0 -24 -5 -24 -24 0
-36 26 -56 70 -56 81 0 92 19 120 200 11 73 20 135 20 136 0 2 -13 4 -30 4
-16 0 -30 -5 -30 -12 0 -6 -7 -4 -18 5 -25 23 -45 21 -69 -5z m75 -61 c2 -8
-2 -34 -8 -57 -8 -30 -16 -40 -28 -38 -13 3 -17 13 -15 47 2 45 18 74 37 68 6
-2 12 -11 14 -20z"/>
<path d="M3149 872 l-25 -3 12 -97 c8 -53 13 -105 14 -115 0 -14 7 -18 32 -15
29 3 34 9 79 108 26 58 48 109 48 113 1 5 -13 7 -30 5 -27 -3 -34 -9 -51 -53
-29 -75 -38 -77 -38 -8 0 34 -3 63 -7 65 -5 2 -20 2 -34 0z"/>
<path d="M3362 857 c-39 -41 -56 -152 -32 -198 12 -21 50 -25 68 -7 9 9 12 9
12 0 0 -7 13 -12 29 -12 34 0 35 2 51 115 6 44 14 88 17 98 4 16 0 18 -36 16
-22 -2 -43 0 -47 4 -14 14 -41 7 -62 -16z m71 -49 c13 -37 -22 -126 -44 -112
-12 7 -11 55 2 93 11 31 34 42 42 19z"/>
<path d="M3879 865 c-56 -30 -84 -161 -44 -205 26 -29 79 -27 110 5 14 13 25
29 25 35 0 16 -46 12 -60 -5 -16 -19 -40 -3 -40 26 0 16 8 19 54 19 l54 0 7
41 c13 74 -44 119 -106 84z m51 -60 c0 -20 -5 -25 -25 -25 -28 0 -29 3 -15 31
15 28 40 24 40 -6z"/>
<path d="M1960 863 c0 -5 7 -53 15 -108 8 -55 15 -103 15 -107 0 -5 13 -8 29
-8 26 0 32 7 66 83 21 45 44 97 52 115 l13 32 -33 0 c-31 0 -34 -3 -51 -52
-25 -71 -36 -81 -36 -32 0 67 -9 84 -41 84 -16 0 -29 -3 -29 -7z"/>
<path d="M2516 853 c-3 -10 -10 -54 -16 -98 -6 -44 -14 -88 -17 -98 -4 -16 0
-18 28 -15 33 3 34 4 45 73 27 170 28 155 -5 155 -20 0 -31 -6 -35 -17z"/>
<path d="M3636 838 c-3 -17 -9 -62 -13 -99 -7 -84 2 -99 61 -99 61 0 85 30
102 122 19 106 19 108 -15 108 -28 0 -29 -2 -41 -72 -15 -94 -16 -98 -36 -98
-14 0 -15 7 -10 43 21 132 22 127 -11 127 -26 0 -31 -5 -37 -32z"/>
<path d="M1016 701 c-26 -29 -13 -61 25 -61 22 0 32 7 41 25 21 47 -31 75 -66
36z"/>
<path d="M1126 699 c-19 -28 -5 -59 28 -59 30 0 48 22 44 52 -4 33 -50 37 -72
7z"/>
<path d="M1239 696 c-6 -13 -9 -32 -6 -40 9 -23 51 -20 73 5 23 25 9 53 -29
57 -21 3 -30 -3 -38 -22z"/>
</g>
</svg>
